<?xml version="1.0" standalone="no"?>
<!DOCTYPE svg PUBLIC "-//W3C//DTD SVG 20010904//EN"
 "http://www.w3.org/TR/2001/REC-SVG-20010904/DTD/svg10.dtd">
<svg version="1.0" xmlns="http://www.w3.org/2000/svg"
 width="1280.000000pt" height="640.000000pt" viewBox="0 0 1280.000000 640.000000"
 preserveAspectRatio="xMidYMid meet">
<g transform="translate(0.000000,640.000000) scale(0.100000,-0.100000)"
fill="#000000" stroke="none">
<path d="M7810 6104 c-475 -28 -882 -68 -1655 -164 -442 -55 -460 -60 -695
-160 -331 -142 -673 -332 -1129 -629 -145 -94 -210 -131 -225 -128 -12 3 -57
14 -100 26 -140 37 -381 25 -476 -24 -43 -22 -62 -57 -86 -155 l-21 -85 -49
-7 c-103 -14 -464 -25 -584 -17 -182 11 -463 11 -560 -1 -323 -38 -618 -111
-897 -220 -259 -101 -351 -176 -524 -425 -88 -127 -139 -219 -170 -308 -34
-96 -36 -131 -10 -173 15 -25 20 -60 26 -182 l7 -151 -33 -78 c-33 -75 -34
-83 -34 -203 0 -81 7 -155 18 -210 21 -100 92 -316 170 -520 48 -124 58 -161
67 -255 37 -361 140 -583 312 -676 l63 -34 390 -7 c215 -5 413 -6 442 -3 58 7
145 54 206 113 60 57 127 156 188 277 l56 110 74 -1 c41 -1 196 -9 344 -18
825 -49 1145 -58 2180 -65 l970 -6 38 -72 c47 -91 129 -180 199 -218 50 -27
63 -30 208 -36 85 -4 228 -8 318 -8 139 -1 164 -3 169 -17 3 -9 0 -19 -6 -23
-7 -5 -78 -11 -159 -15 -641 -29 -1138 -63 -1206 -83 -31 -9 -3 -24 65 -33
239 -34 1305 -80 1845 -80 202 0 342 -4 378 -11 64 -13 153 -2 261 34 41 13
144 27 317 43 464 42 567 57 575 81 3 7 -12 16 -34 23 -53 15 -323 48 -475 58
-71 5 -131 11 -134 15 -4 4 15 54 41 113 26 59 61 143 77 188 16 44 34 84 40
87 6 4 84 7 172 7 89 0 348 9 576 21 228 11 510 25 625 31 116 6 300 15 410
20 110 5 297 14 415 20 118 5 251 12 295 15 44 3 85 2 90 -2 6 -5 23 -57 38
-118 47 -194 125 -318 235 -372 l57 -28 350 -3 c231 -2 362 0 387 8 118 34
248 197 336 421 97 243 155 644 134 924 -10 129 -6 145 34 145 16 0 25 7 28
23 7 32 15 201 22 457 7 244 -12 560 -42 708 -45 218 -154 389 -307 480 -143
86 -385 166 -680 225 l-158 31 -254 272 c-247 265 -345 359 -471 456 -245 188
-596 361 -866 427 -137 33 -299 57 -643 95 -497 55 -682 67 -1110 70 -214 2
-419 2 -455 0z m-2391 -399 c-3 -2 -64 -33 -137 -69 -269 -133 -501 -267 -874
-504 -125 -79 -233 -142 -240 -139 -20 6 372 258 667 428 202 117 620 320 584
284z"/>
</g>
</svg>
